<svg width="44" height="44" viewBox="0 0 44 44" fill="none" xmlns="http://www.w3.org/2000/svg">
<path fill-rule="evenodd" clip-rule="evenodd" d="M14.2678 10.7322C13.2915 9.75592 11.7085 9.75592 10.7322 10.7322C9.75592 11.7085 9.75592 13.2915 10.7322 14.2678L18.3816 21.9171L10.7322 29.5664C9.75592 30.5428 9.75592 32.1257 10.7322 33.102C11.7085 34.0783 13.2915 34.0783 14.2678 33.102L21.9171 25.4526L29.5664 33.102C30.5427 34.0783 32.1257 34.0783 33.102 33.102C34.0783 32.1257 34.0783 30.5427 33.102 29.5664L25.4526 21.9171L33.102 14.2678C34.0783 13.2915 34.0783 11.7086 33.102 10.7322C32.1257 9.75593 30.5427 9.75593 29.5664 10.7322L21.9171 18.3816L14.2678 10.7322Z" fill="white"/>
</svg>
