<svg width="64" height="101" viewBox="0 0 64 101" fill="none" xmlns="http://www.w3.org/2000/svg">
<path d="M10 69.696V72.816H5.984V69.696H10ZM11.104 73.888V68.624H4.896V75.024H5.984V73.888H11.104ZM14.448 65.36H7.312C7.712 64.592 8.128 63.68 8.48 62.832L7.024 62.576C6.816 63.392 6.4 64.496 6 65.36H1.632V77.216H2.8V66.512H13.264V75.632C13.264 75.936 13.168 76.016 12.88 76.032C12.544 76.048 11.44 76.048 10.288 76C10.464 76.32 10.656 76.88 10.72 77.216C12.16 77.216 13.136 77.2 13.712 77.008C14.272 76.816 14.448 76.416 14.448 75.632V65.36ZM31.072 64.976V63.792H16.944V64.976H23.056V77.2H24.32V68.784C26.144 69.76 28.288 71.072 29.376 71.968L30.208 70.896C28.944 69.936 26.432 68.496 24.528 67.584L24.32 67.824V64.976H31.072ZM42.624 66.144C42.624 67.04 42.832 67.408 43.84 67.408H45.664C46.064 67.408 46.48 67.408 46.672 67.344C46.64 67.088 46.624 66.768 46.608 66.512C46.384 66.56 45.888 66.576 45.648 66.576H44.032C43.728 66.576 43.696 66.48 43.696 66.16V65.008H47.104V64.032H42.24C42.032 63.632 41.728 63.056 41.472 62.64L40.432 62.896C40.608 63.248 40.816 63.648 40.992 64.032H36.672V65.008H42.624V66.144ZM39.68 65.392C39.44 66.416 38.656 66.784 36.224 66.976C36.416 67.168 36.688 67.584 36.752 67.824C39.504 67.504 40.464 66.88 40.72 65.392H39.68ZM36.672 64.512C36.08 64.048 34.928 63.344 34.096 62.88L33.52 63.76C34.352 64.256 35.504 65.008 36.08 65.504L36.672 64.512ZM35.856 68.704C35.248 68.24 34.064 67.616 33.184 67.248L32.656 68.176C33.552 68.576 34.704 69.232 35.28 69.696L35.856 68.704ZM35.44 71.216C34.704 72.96 33.728 74.928 33.056 76.112L33.952 76.88C34.688 75.456 35.568 73.568 36.224 71.952L35.44 71.216ZM38.848 68.704H44.304V70.416H38.848V68.704ZM46.032 71.712C45.52 72.304 44.672 73.136 43.952 73.712C43.36 73.008 42.896 72.208 42.56 71.344H45.296V67.776H37.872V71.344H40.256C39.184 72.4 37.52 73.28 35.728 73.872C35.952 74.064 36.32 74.448 36.48 74.688C37.152 74.448 37.792 74.16 38.4 73.856V75.344C38.4 75.936 38.208 76.144 38.016 76.256C38.192 76.448 38.4 76.928 38.464 77.184C38.752 76.992 39.232 76.832 42.576 76.128C42.56 75.92 42.56 75.504 42.576 75.2L39.44 75.744V73.264C40.24 72.736 40.944 72.144 41.504 71.472C42.512 74.064 44.224 76.08 46.672 77.072C46.832 76.784 47.168 76.416 47.424 76.192C46.32 75.792 45.344 75.168 44.544 74.384C45.312 73.808 46.24 73.008 46.96 72.288L46.032 71.712ZM50.176 71.184V70.016H52.192V71.184H50.176ZM50.176 68.08H52.192V69.232H50.176V68.08ZM55.36 68.08V69.232H53.264V68.08H55.36ZM55.36 71.184H53.264V70.016H55.36V71.184ZM59.568 66.32C59.6 65.2 59.6 64.016 59.6 62.816H58.48C58.48 64.032 58.48 65.2 58.448 66.32H56.544V67.44H58.416C58.272 70.432 57.84 73.008 56.464 74.896V74.832C55.392 74.96 54.304 75.072 53.264 75.168V73.904H56.4V72.992H53.264V72.016H56.368V67.264H53.264V66.256H56.656V65.328H53.264V64.16C54.432 64.032 55.52 63.888 56.384 63.696L55.792 62.784C54.144 63.152 51.264 63.44 48.896 63.568C49.024 63.808 49.136 64.192 49.184 64.448C50.128 64.416 51.168 64.352 52.192 64.272V65.328H48.736V66.256H52.192V67.264H49.2V72.016H52.192V72.992H49.168V73.904H52.192V75.28C50.88 75.408 49.68 75.52 48.72 75.6L48.896 76.64C50.688 76.448 53.168 76.176 55.584 75.888C55.376 76.08 55.152 76.272 54.896 76.448C55.184 76.64 55.6 77.04 55.776 77.296C58.592 75.184 59.328 71.696 59.52 67.44H61.808C61.648 73.248 61.456 75.36 61.088 75.824C60.928 76.032 60.784 76.08 60.512 76.08C60.208 76.08 59.504 76.064 58.736 76C58.912 76.304 59.04 76.8 59.072 77.12C59.808 77.168 60.56 77.184 61.008 77.12C61.488 77.072 61.808 76.944 62.08 76.528C62.624 75.856 62.768 73.632 62.944 66.928C62.944 66.768 62.96 66.32 62.96 66.32H59.568Z" fill="black"/>
<rect x="18" y="10" width="28" height="42" rx="11" stroke="black" stroke-width="2"/>
<line x1="32.5" y1="4.5" x2="32.5" y2="15.5" stroke="black" stroke-width="3" stroke-linecap="round"/>
</svg>
