<svg width="64" height="68" viewBox="0 0 64 68" fill="none" xmlns="http://www.w3.org/2000/svg">
<path d="M11.232 46.136C10.992 45.448 10.384 44.36 9.84 43.544L8.768 43.928C9.296 44.76 9.872 45.896 10.08 46.584L11.232 46.136ZM4.016 43.656C3.344 44.776 2 46.12 0.784 46.936C0.96 47.16 1.264 47.624 1.408 47.896C2.768 46.952 4.24 45.464 5.152 44.072L4.016 43.656ZM4.352 47.192C3.44 48.84 1.968 50.456 0.56 51.512C0.768 51.8 1.088 52.408 1.2 52.68C1.76 52.2 2.352 51.656 2.896 51.032V58.232H4.08V49.592C4.56 48.952 5.024 48.264 5.392 47.592L4.352 47.192ZM10.864 56.6V52.488H14.352V51.352H10.864V47.784H14.864V46.648H5.6V47.784H9.632V51.352H6.16V52.488H9.632V56.6H5.152V57.736H15.264V56.6H10.864ZM24.096 56.28V49.944H30.048V48.76H24.096V43.864H22.848V56.28H16.88V57.464H31.136V56.28H24.096ZM37.168 45.768C36.512 45.224 35.232 44.392 34.272 43.816L33.536 44.616C34.512 45.208 35.792 46.088 36.4 46.664L37.168 45.768ZM36.144 49.848C35.536 49.384 34.304 48.664 33.408 48.2L32.72 49.032C33.648 49.544 34.832 50.296 35.44 50.776L36.144 49.848ZM34.32 57.928C35.088 56.488 35.984 54.552 36.64 52.92L35.712 52.216C34.96 53.976 33.968 56.024 33.248 57.208L34.32 57.928ZM45.584 50.568H38.256V53.064C38.256 54.44 38.128 56.312 37.04 57.688C37.296 57.8 37.776 58.152 37.968 58.36C39.152 56.84 39.376 54.648 39.376 53.064V51.528H44.448V54.104C42.592 54.488 40.704 54.872 39.408 55.112L39.776 56.072C41.104 55.784 42.784 55.384 44.448 55.016V57.032C44.448 57.224 44.384 57.288 44.16 57.304C43.952 57.304 43.2 57.304 42.4 57.272C42.544 57.56 42.672 57.96 42.72 58.248C43.856 58.248 44.576 58.248 45.008 58.072C45.456 57.896 45.584 57.624 45.584 57.032V50.568ZM39.888 53.096C41.152 53.256 42.736 53.656 43.584 54.024L43.952 53.176C43.104 52.808 41.504 52.456 40.256 52.328L39.888 53.096ZM39.472 45.16H44.368V46.232H41.344V48.504H39.472V45.16ZM44.368 48.504H42.336V47.032H44.368V48.504ZM45.488 48.504V44.2H38.384V48.504H36.72V51.192H37.824V49.464H46.032V51.192H47.168V48.504H45.488ZM50.176 52.184V51.016H52.192V52.184H50.176ZM50.176 49.08H52.192V50.232H50.176V49.08ZM55.36 49.08V50.232H53.264V49.08H55.36ZM55.36 52.184H53.264V51.016H55.36V52.184ZM59.568 47.32C59.6 46.2 59.6 45.016 59.6 43.816H58.48C58.48 45.032 58.48 46.2 58.448 47.32H56.544V48.44H58.416C58.272 51.432 57.84 54.008 56.464 55.896V55.832C55.392 55.96 54.304 56.072 53.264 56.168V54.904H56.4V53.992H53.264V53.016H56.368V48.264H53.264V47.256H56.656V46.328H53.264V45.16C54.432 45.032 55.52 44.888 56.384 44.696L55.792 43.784C54.144 44.152 51.264 44.44 48.896 44.568C49.024 44.808 49.136 45.192 49.184 45.448C50.128 45.416 51.168 45.352 52.192 45.272V46.328H48.736V47.256H52.192V48.264H49.2V53.016H52.192V53.992H49.168V54.904H52.192V56.28C50.88 56.408 49.68 56.52 48.72 56.6L48.896 57.64C50.688 57.448 53.168 57.176 55.584 56.888C55.376 57.08 55.152 57.272 54.896 57.448C55.184 57.64 55.6 58.04 55.776 58.296C58.592 56.184 59.328 52.696 59.52 48.44H61.808C61.648 54.248 61.456 56.36 61.088 56.824C60.928 57.032 60.784 57.08 60.512 57.08C60.208 57.08 59.504 57.064 58.736 57C58.912 57.304 59.04 57.8 59.072 58.12C59.808 58.168 60.56 58.184 61.008 58.12C61.488 58.072 61.808 57.944 62.08 57.528C62.624 56.856 62.768 54.632 62.944 47.928C62.944 47.768 62.96 47.32 62.96 47.32H59.568Z" fill="black"/>
<path d="M42 29L32.5 19L23 29" stroke="black" stroke-width="3" stroke-linecap="round" stroke-linejoin="round"/>
<path d="M42 16L32.5 6L23 16" stroke="black" stroke-width="3" stroke-linecap="round" stroke-linejoin="round"/>
</svg>
