<svg width="64" height="68" viewBox="0 0 64 68" fill="none" xmlns="http://www.w3.org/2000/svg">
<path d="M11.232 52.136C10.992 51.448 10.384 50.36 9.84 49.544L8.768 49.928C9.296 50.76 9.872 51.896 10.08 52.584L11.232 52.136ZM4.016 49.656C3.344 50.776 2 52.12 0.784 52.936C0.96 53.16 1.264 53.624 1.408 53.896C2.768 52.952 4.24 51.464 5.152 50.072L4.016 49.656ZM4.352 53.192C3.44 54.84 1.968 56.456 0.56 57.512C0.768 57.8 1.088 58.408 1.2 58.68C1.76 58.2 2.352 57.656 2.896 57.032V64.232H4.08V55.592C4.56 54.952 5.024 54.264 5.392 53.592L4.352 53.192ZM10.864 62.6V58.488H14.352V57.352H10.864V53.784H14.864V52.648H5.6V53.784H9.632V57.352H6.16V58.488H9.632V62.6H5.152V63.736H15.264V62.6H10.864ZM24.096 62.28V55.944H30.048V54.76H24.096V49.864H22.848V62.28H16.88V63.464H31.136V62.28H24.096ZM37.168 51.768C36.512 51.224 35.232 50.392 34.272 49.816L33.536 50.616C34.512 51.208 35.792 52.088 36.4 52.664L37.168 51.768ZM36.144 55.848C35.536 55.384 34.304 54.664 33.408 54.2L32.72 55.032C33.648 55.544 34.832 56.296 35.44 56.776L36.144 55.848ZM34.32 63.928C35.088 62.488 35.984 60.552 36.64 58.92L35.712 58.216C34.96 59.976 33.968 62.024 33.248 63.208L34.32 63.928ZM45.584 56.568H38.256V59.064C38.256 60.44 38.128 62.312 37.04 63.688C37.296 63.8 37.776 64.152 37.968 64.36C39.152 62.84 39.376 60.648 39.376 59.064V57.528H44.448V60.104C42.592 60.488 40.704 60.872 39.408 61.112L39.776 62.072C41.104 61.784 42.784 61.384 44.448 61.016V63.032C44.448 63.224 44.384 63.288 44.16 63.304C43.952 63.304 43.2 63.304 42.4 63.272C42.544 63.56 42.672 63.96 42.72 64.248C43.856 64.248 44.576 64.248 45.008 64.072C45.456 63.896 45.584 63.624 45.584 63.032V56.568ZM39.888 59.096C41.152 59.256 42.736 59.656 43.584 60.024L43.952 59.176C43.104 58.808 41.504 58.456 40.256 58.328L39.888 59.096ZM39.472 51.16H44.368V52.232H41.344V54.504H39.472V51.16ZM44.368 54.504H42.336V53.032H44.368V54.504ZM45.488 54.504V50.2H38.384V54.504H36.72V57.192H37.824V55.464H46.032V57.192H47.168V54.504H45.488ZM50.176 58.184V57.016H52.192V58.184H50.176ZM50.176 55.08H52.192V56.232H50.176V55.08ZM55.36 55.08V56.232H53.264V55.08H55.36ZM55.36 58.184H53.264V57.016H55.36V58.184ZM59.568 53.32C59.6 52.2 59.6 51.016 59.6 49.816H58.48C58.48 51.032 58.48 52.2 58.448 53.32H56.544V54.44H58.416C58.272 57.432 57.84 60.008 56.464 61.896V61.832C55.392 61.96 54.304 62.072 53.264 62.168V60.904H56.4V59.992H53.264V59.016H56.368V54.264H53.264V53.256H56.656V52.328H53.264V51.16C54.432 51.032 55.52 50.888 56.384 50.696L55.792 49.784C54.144 50.152 51.264 50.44 48.896 50.568C49.024 50.808 49.136 51.192 49.184 51.448C50.128 51.416 51.168 51.352 52.192 51.272V52.328H48.736V53.256H52.192V54.264H49.2V59.016H52.192V59.992H49.168V60.904H52.192V62.28C50.88 62.408 49.68 62.52 48.72 62.6L48.896 63.64C50.688 63.448 53.168 63.176 55.584 62.888C55.376 63.08 55.152 63.272 54.896 63.448C55.184 63.64 55.6 64.04 55.776 64.296C58.592 62.184 59.328 58.696 59.52 54.44H61.808C61.648 60.248 61.456 62.36 61.088 62.824C60.928 63.032 60.784 63.08 60.512 63.08C60.208 63.08 59.504 63.064 58.736 63C58.912 63.304 59.04 63.8 59.072 64.12C59.808 64.168 60.56 64.184 61.008 64.12C61.488 64.072 61.808 63.944 62.08 63.528C62.624 62.856 62.768 60.632 62.944 53.928C62.944 53.768 62.96 53.32 62.96 53.32H59.568Z" fill="black"/>
<path d="M42 37L32.5 27L23 37" stroke="black" stroke-width="3" stroke-linecap="round" stroke-linejoin="round"/>
<path d="M42 24L32.5 14L23 24" stroke="black" stroke-width="3" stroke-linecap="round" stroke-linejoin="round"/>
</svg>
